<svg id="Layer_1" data-name="Layer 1" xmlns="http://www.w3.org/2000/svg" width="62" height="23" viewBox="0 0 62 23"><defs><style>.cls-1{fill:#231f20;}</style></defs><path class="cls-1" d="M9.68,9.12a3.71,3.71,0,0,0,.92,1c.36.26.87.59,1.52,1s1.24.76,1.62,1a3.76,3.76,0,0,1,1,1.07,2.87,2.87,0,0,1,.41,1.55,3.19,3.19,0,0,1-1.89,3,5.07,5.07,0,0,1-2.23.45,5.78,5.78,0,0,1-2.82-.7.29.29,0,0,1-.13-.14A1.59,1.59,0,0,1,8,17.08l-.26-2.72s0-.09.09-.1.12,0,.13.06A5.68,5.68,0,0,0,9.17,16.8a2.87,2.87,0,0,0,2.31,1,2.6,2.6,0,0,0,1.69-.55,2.11,2.11,0,0,0,.69-1.75,2.92,2.92,0,0,0-.4-1.56,3.93,3.93,0,0,0-1-1.09,16.3,16.3,0,0,0-1.55-1c-.64-.39-1.14-.72-1.51-1A3.54,3.54,0,0,1,8.5,9.82a2.93,2.93,0,0,1-.38-1.5,2.79,2.79,0,0,1,.53-1.71A3.17,3.17,0,0,1,10,5.55a4.78,4.78,0,0,1,1.81-.35,6,6,0,0,1,2.34.48c.2.07.3.18.3.34l.14,2.3s0,.08-.1.08a.12.12,0,0,1-.12-.08,4.09,4.09,0,0,0-.86-1.93,2.42,2.42,0,0,0-2-.89,2.08,2.08,0,0,0-1.67.65A2.38,2.38,0,0,0,9.3,7.76,2.46,2.46,0,0,0,9.68,9.12Z"/><path class="cls-1" d="M18.11,6.42A4.19,4.19,0,0,0,17.2,8.6s0,0-.11,0-.11,0-.11,0c.05-.48.11-1.11.18-1.88s.1-1.35.1-1.74c0-.07,0-.1.11-.1s.11,0,.11.1c0,.29.36.44,1.08.44q1.7.06,4,.06c.79,0,1.62,0,2.5,0l1.36,0a4,4,0,0,0,1.07-.1.61.61,0,0,0,.45-.4s.05-.08.12-.08.1,0,.1.08c0,.39-.08,1-.12,1.76S28,8.11,28,8.6c0,0,0,0-.12,0s-.12,0-.12,0a3.41,3.41,0,0,0-.64-2.19,2.52,2.52,0,0,0-1.92-.63,7.34,7.34,0,0,0-1.28.08.72.72,0,0,0-.52.34,2,2,0,0,0-.14.88V16.3a2.21,2.21,0,0,0,.14.9.75.75,0,0,0,.54.38,5.54,5.54,0,0,0,1.26.1s.06,0,.06.12,0,.12-.06.12l-1.06,0-1.56,0-1.5,0-1.1,0s0,0,0-.12,0-.12,0-.12a5.54,5.54,0,0,0,1.26-.1.8.8,0,0,0,.55-.39,2,2,0,0,0,.15-.89V7a1.85,1.85,0,0,0-.14-.87.7.7,0,0,0-.52-.32A7.62,7.62,0,0,0,20,5.78,2.53,2.53,0,0,0,18.11,6.42Z"/><path class="cls-1" d="M32.91,17.29a6,6,0,0,1-2.24-2.36,6.79,6.79,0,0,1-.79-3.25,6,6,0,0,1,1-3.53,6.45,6.45,0,0,1,2.67-2.21,8.05,8.05,0,0,1,3.33-.74,6.24,6.24,0,0,1,3.34.89,6,6,0,0,1,2.21,2.35,6.59,6.59,0,0,1,.77,3.1,6.13,6.13,0,0,1-1,3.34,7,7,0,0,1-2.57,2.4,7.12,7.12,0,0,1-3.49.88A6.32,6.32,0,0,1,32.91,17.29Zm6.46-.21a4.54,4.54,0,0,0,1.72-1.94,6.82,6.82,0,0,0,.63-3A7.59,7.59,0,0,0,41,8.76a5.49,5.49,0,0,0-2-2.28,5.34,5.34,0,0,0-3-.82,4.32,4.32,0,0,0-3.44,1.42A5.72,5.72,0,0,0,31.4,11a8.19,8.19,0,0,0,.7,3.43,5.89,5.89,0,0,0,2,2.44,4.85,4.85,0,0,0,2.86.89A4.64,4.64,0,0,0,39.37,17.08Z"/><path class="cls-1" d="M48.23,17.15a1,1,0,0,0,.66.41,7.17,7.17,0,0,0,1.55.12s.06,0,.06.12,0,.12-.06.12l-1.28,0-1.74,0-1.34,0-1,0s0,0,0-.12,0-.12,0-.12a4.24,4.24,0,0,0,1.11-.1.69.69,0,0,0,.47-.39,2.46,2.46,0,0,0,.12-.89V7a2.4,2.4,0,0,0-.12-.88.69.69,0,0,0-.47-.39,4.14,4.14,0,0,0-1.11-.11s0,0,0-.12,0-.12,0-.12l1,0c.56,0,1,0,1.34,0s.71,0,1.12-.06l.76,0,.9,0a4.82,4.82,0,0,1,3,.82,2.91,2.91,0,0,1,1.11,2.5,3.71,3.71,0,0,1-.65,2.22,3.91,3.91,0,0,1-1.67,1.34,5.31,5.31,0,0,1-2.1.44,3.67,3.67,0,0,1-1-.1s-.06,0-.06-.1a.27.27,0,0,1,0-.12s0,0,.07,0a3.11,3.11,0,0,0,.72.08,3.14,3.14,0,0,0,2.23-.86,3.23,3.23,0,0,0,.91-2.48,3.5,3.5,0,0,0-.86-2.49,2.88,2.88,0,0,0-2.2-.91,5,5,0,0,0-1,.08.66.66,0,0,0-.46.37,2.47,2.47,0,0,0-.14,1v9.14A1.94,1.94,0,0,0,48.23,17.15Z"/></svg>